<svg width="39" height="34" xmlns="http://www.w3.org/2000/svg"><g fill="none" fill-rule="evenodd"><path d="M35.11 26.858l-2.886.281h-.067l-.422-.108c.067-.152.134-.282.245-.39.777-.52 1.665-.844 2.597-.995a8.646 8.646 0 0 1 3.574.086c.666.173.8.303.755.974-.089 2.056-.8 3.874-2.264 5.368-.133.13-.267.238-.422.324a.29.29 0 0 1-.266 0c-.045-.086-.067-.194-.045-.281.178-.498.4-.996.577-1.493.245-.758.444-1.515.644-2.273.045-.195.045-.411.045-.606.022-.303-.2-.584-.533-.65-.51-.108-1.066-.15-1.532-.237zM19.525 34c-6.571-.043-12.365-1.883-17.494-5.649a37.87 37.87 0 0 1-1.82-1.45.516.516 0 0 1-.178-.195.412.412 0 0 1 0-.325.458.458 0 0 1 .333-.086.828.828 0 0 1 .311.151c3.552 1.992 7.437 3.377 11.456 4.134 1.465.282 2.952.455 4.417.606a31.19 31.19 0 0 0 3.752.152 39.09 39.09 0 0 0 14.053-2.835c.155-.065.31-.109.466-.152a.51.51 0 0 1 .622.368c.067.216-.044.433-.222.563-.31.216-.622.433-.955.649-2.62 1.645-5.483 2.705-8.502 3.376a27.04 27.04 0 0 1-4.574.65c-.577 0-1.199.043-1.665.043z" fill="#F8981D"/><path d="M19.571 0c1.11.087 2.176.26 3.286.52 1.021.26 1.998.692 2.886 1.255 1.776 1.125 2.53 2.857 2.62 4.891.089 3.073.133 6.19.044 9.263-.133 1.775.444 3.506 1.599 4.891.577.693.532.996-.134 1.559-.976.822-1.953 1.644-2.974 2.51-.71.563-1.11.606-1.732-.043-.8-.78-1.51-1.645-2.309-2.51-.533.432-1.066.952-1.643 1.384-2.575 1.905-5.506 2.208-8.48 1.256-2.354-.736-3.641-2.51-3.996-4.848-.489-2.987.177-5.627 2.664-7.662 1.42-1.082 3.063-1.774 4.84-1.99 1.864-.304 3.773-.52 5.771-.823 0-.866-.044-1.732-.133-2.597-.266-1.515-1.554-2.381-3.197-2.251-1.864.13-2.886.909-3.419 2.683-.177.65-.444.823-1.11.78-1.287-.13-2.575-.217-3.818-.39-.844-.087-1.066-.433-.888-1.299.8-3.376 3.152-5.237 6.482-6.06A46.664 46.664 0 0 1 19.483 0h.133-.045zm2.442 13.245c-.843.087-1.598.087-2.353.174-3.108.346-4.618 2.034-4.396 4.847.178 2.251 2.31 3.377 4.263 2.251a5.789 5.789 0 0 0 1.687-1.731c1.066-1.688.755-3.55.8-5.54z" fill="#252525"/></g></svg>