<svg width="46" height="18" xmlns="http://www.w3.org/2000/svg"><g fill="none" fill-rule="evenodd"><path d="M34.243 6.628a4.712 4.712 0 0 0-.896-1.574c.03-.311-.258-.514-.318-.853h2.514c.216 0 .235.203.304.334 1.177 2.234 2.351 4.47 3.522 6.707.062.116.126.233.188.358.154-.04.167-.18.216-.269 1.191-2.27 2.378-4.544 3.56-6.821a.474.474 0 0 1 .496-.312c.674.02 1.35 0 2.025 0 .067.163-.051.261-.107.37-2.242 4.219-4.486 8.43-6.733 12.635a.455.455 0 0 1-.473.281c-.73-.016-1.458 0-2.254 0 .434-.79.845-1.528 1.247-2.272.257-.477.74-.94.71-1.434-.03-.495-.458-.936-.718-1.402l-3.005-5.404c-.083-.123-.107-.285-.278-.344z" fill="#85B940"/><path d="M23.366 10.804l.224-.95c.78-1.42 2.203-1.735 3.68-1.923 1.412-.179 2.838-.158 4.258-.138.393 0 .459-.127.436-.451-.066-.956-.592-1.614-1.563-1.86a4.563 4.563 0 0 0-2.727.069c-.511.18-.917.495-1.063 1.025a.282.282 0 0 1-.128.19.309.309 0 0 1-.233.041c-.607 0-1.216-.01-1.822 0-.244 0-.312-.064-.261-.299a2.798 2.798 0 0 1 1.536-1.955c1.154-.6 2.416-.703 3.693-.705.387.003.773.03 1.156.08 1.042.128 2 .453 2.795 1.139.398.462.702.992.896 1.561-.173.18.026.359.024.538-.011 1.185 0 2.37.015 3.552.015.929.015 1.859.05 2.778.008.262-.057.35-.335.34a17.74 17.74 0 0 0-1.449 0c-.298.014-.375-.103-.375-.36 0-.256-.032-.575-.05-.856a.247.247 0 0 0-.253.133 4.59 4.59 0 0 1-2.817 1.35 8.245 8.245 0 0 1-2.96-.1c-1.8-.437-2.657-1.446-2.727-3.199zm6.851-1.548v.032c-.426 0-.854-.02-1.28 0-.797.045-1.601.08-2.334.44-.625.281-.951.948-.774 1.585.152.656.61 1.036 1.242 1.255a4.25 4.25 0 0 0 1.756.158c1.918-.136 3.085-1.305 3.145-3.123 0-.256-.032-.383-.352-.358-.465.032-.935.01-1.403.01z" fill="#F3AF1C"/><path d="M11.701 7.93l.023-6.274c0-.448.013-.896 0-1.342-.012-.251.09-.314.334-.307.537.015 1.076.02 1.614 0 .29-.01.375.074.375.359-.013 1.579 0 3.158 0 4.739v.249a.18.18 0 0 0 .205-.083c1.73-1.792 5.635-1.971 7.741-.064 1.341 1.204 1.753 2.72 1.616 4.42 0 .079 0 .157-.01.235l-.218.955c-.043.082-.09.163-.125.247-.87 1.936-2.446 2.936-4.61 3.092-1.74.127-3.31-.296-4.616-1.592a6.296 6.296 0 0 0-.07.852c.022.358-.15.439-.493.42a12.808 12.808 0 0 0-1.407 0c-.327.017-.425-.067-.398-.395.101-1.235.054-2.475.06-3.712a.907.907 0 0 0-.027-.156l.006-1.644zm5.93-2.557c-1.752 0-3.028.941-3.458 2.565a4.15 4.15 0 0 0-.058 1.918c.27 1.316 1.001 2.29 2.393 2.665s2.7.167 3.725-.896c.88-.896 1.052-2.023.926-3.206-.199-1.828-1.608-3.046-3.528-3.046z" fill="#3366B0"/><path d="M11.701 7.93v1.645H2.962c-.375 0-.422.107-.375.426.265 1.683 1.758 2.816 3.63 2.721.968-.052 1.94-.236 2.458-1.075.359-.581.768-.669 1.358-.619.344.026.69.026 1.035 0 .344-.023.357.115.272.373a3.362 3.362 0 0 1-1.401 1.805 6.07 6.07 0 0 1-2.705.909c-1.304.147-2.594.097-3.84-.332-1.824-.63-2.845-1.882-3.13-3.697A6.477 6.477 0 0 1 .34 7.689c.408-1.867 1.584-3.06 3.503-3.57a8.516 8.516 0 0 1 4.095-.08c1.992.45 3.228 1.628 3.671 3.544.026.12.062.233.092.346zm-5.795.166h2.977c.48 0 .48 0 .387-.468-.257-1.326-1.14-2.08-2.678-2.287-2.001-.269-3.57.705-3.945 2.422-.058.267-.01.342.28.337.993-.011 1.985-.004 2.979-.004z" fill="#E53238"/></g></svg>