<svg width="37" height="32" xmlns="http://www.w3.org/2000/svg"><g fill="none" fill-rule="evenodd"><path d="M18.8 18.895h-.004c0-.481.032-.965-.008-1.443-.062-.76-.666-1.229-1.493-1.21-.73.017-1.361.502-1.289 1.128a26.82 26.82 0 0 0 .558 3.128c.146.614.663.92 1.295.815.594-.098.924-.514.94-1.127.01-.43.002-.86.002-1.291m3.944-2.655c-.847-.012-1.443.47-1.486 1.306a28.503 28.503 0 0 0-.001 2.658c.025.625.368 1.075 1.031 1.12.678.045 1.131-.332 1.27-.977a33.34 33.34 0 0 0 .466-2.688c.113-.864-.407-1.407-1.28-1.42m-10.904.028c-.927-.01-1.534.416-1.394 1.111a22.16 22.16 0 0 0 .87 3.137c.234.652 1.095.955 1.751.77.653-.185.91-.643.796-1.503a39.034 39.034 0 0 0-.35-2.172c-.172-.904-.723-1.333-1.673-1.343m-.79-2.506c1.391.012 1.77-.415 1.549-1.748a99.749 99.749 0 0 0-.298-1.721c-.156-.85-.66-1.292-1.522-1.326-.358-.014-.72-.018-1.077.005-.874.055-1.293.607-1.086 1.447.156.64.354 1.269.53 1.903.322 1.164.673 1.43 1.903 1.44m7.753-2.397c0-2.28-.183-2.458-2.491-2.424-.128.002-.257-.005-.384.01-.768.088-1.186.593-1.083 1.357.104.776.168 1.57.4 2.31.129.41.494.885.877 1.051 1.575.684 2.68-.082 2.681-1.773v-.531m7.84 5.602c-.16.915-.297 1.763-.456 2.608-.173.926.048 1.495.69 1.714.849.288 1.798-.085 2.102-.919.303-.829.535-1.688.728-2.55.095-.422.293-.588.695-.662.674-.124 1.34-.293 2.105-.465-.35 1.398-.688 2.764-1.032 4.128a45.75 45.75 0 0 1-.38 1.39c-.314 1.097-.949 1.61-2.11 1.614-5.952.017-11.904.022-17.856.019-1.132-.001-1.78-.545-2.064-1.663-1.433-5.644-2.86-11.29-4.292-16.934-.275-1.083-.708-1.409-1.851-1.416-.488-.003-.976.017-1.463-.007C.77 3.79.31 3.346.303 2.75c-.005-.604.452-1.08 1.133-1.094a77.7 77.7 0 0 1 3.54.01c.84.022 1.489.552 1.733 1.377.2.68.35 1.374.539 2.058.274.993.712 1.327 1.76 1.335 3.336.026 6.67.044 10.006.066.997.007.97.01.864.984-.366 3.377 1.556 7.458 5.785 9.12.307.121.62.228.98.36zm-14.838 8.47c1.949.034 3.327 1.443 3.28 3.351-.042 1.722-1.578 3.184-3.308 3.149-1.823-.039-3.3-1.57-3.25-3.37a3.202 3.202 0 0 1 3.278-3.13zm15.587 0c1.907.02 3.328 1.409 3.319 3.245-.01 1.764-1.516 3.256-3.287 3.255-1.806-.001-3.305-1.53-3.276-3.34a3.192 3.192 0 0 1 3.244-3.16z" fill="#474747"/><path d="M29.32.761c-.625 1.236-1.173 2.253-1.654 3.3-.243.531-.591.741-1.165.805-1.151.128-2.294.334-3.583.53.697.691 1.21 1.335 1.852 1.81 1.104.817 1.425 1.763.99 3.07-.247.74-.267 1.555-.419 2.535.79-.394 1.435-.612 1.954-.995 1.403-1.037 2.717-.968 4.096.044.535.392 1.19.623 1.992 1.03-.16-.991-.186-1.758-.42-2.458-.466-1.4-.162-2.45 1.076-3.315.626-.438 1.112-1.072 1.793-1.748-1.16-.18-2.132-.43-3.11-.454-1.102-.028-1.635-.56-2.02-1.496-.35-.85-.845-1.64-1.382-2.658m-.048 13.972c-3.36.198-7.583-2.491-7.591-7.335-.007-4.163 3.172-7.461 7.63-7.397 4.194.06 7.485 2.724 7.55 7.365.06 4.254-3.074 7.272-7.589 7.367" fill="#F08E24"/></g></svg>