<svg width="36" height="36" xmlns="http://www.w3.org/2000/svg"><path d="M34.942 17.982c-.088-.954-.158-1.904-.273-2.849-.052-.432-.188-.855-.295-1.28-.838-3.332-2.558-6.176-5.163-8.482-2.64-2.337-5.745-3.74-9.321-4.15a16.689 16.689 0 0 0-6.58.546 16.639 16.639 0 0 0-6.918 3.957c-2.649 2.5-4.297 5.531-5.005 9.036-.568 2.807-.388 5.585.48 8.325.787 2.478 2.074 4.683 3.897 6.567 2.672 2.764 5.93 4.501 9.826 5.047 3.7.518 7.224-.046 10.45-1.873 5.835-3.303 8.624-8.368 8.902-14.844M36 17.814c-.041 4.346-1.296 8.07-3.88 11.332-2.389 3.016-5.473 5.089-9.26 6.16-2.895.819-5.828.925-8.743.256-5.102-1.17-8.977-4.015-11.62-8.405C1.013 24.694.218 22.027.038 19.17c-.124-1.964.048-3.89.533-5.786a17.164 17.164 0 0 1 1.944-4.59c1.854-3.087 4.41-5.448 7.712-7.032C12.246.795 14.386.241 16.636.058a17.265 17.265 0 0 1 4.837.283c2.916.59 5.54 1.8 7.832 3.668 2.58 2.101 4.422 4.69 5.58 7.755.767 2.033 1.071 4.135 1.115 6.05zm-14.075.767c-1.913-.308-3.674-.154-5.502.54l2.865-6.54 2.637 6zm.972 4.941c.128-.227.19-.351.265-.47l4.618-7.302c.666-1.053 1.363-2.09 1.982-3.168.168-.292.134-.715.105-1.07-.005-.058-.47-.112-.722-.113-2.486-.009-4.972-.007-7.458-.006-.126 0-.252.025-.377.038.102.835.307 1.023 1.072 1.023 1.794 0 3.589-.002 5.384 0 .192 0 .385.016.617.026-.05.135-.067.223-.112.296a3042.03 3042.03 0 0 1-3.913 6.275c-.052.084-.125.18-.212.214-.152.06-.87-.35-.947-.522-1.056-2.346-2.113-4.692-3.158-7.042-.102-.228-.238-.324-.482-.308-.145.01-.294.027-.437.01-.317-.041-.469.09-.592.374-.689 1.575-1.398 3.141-2.102 4.71-1.16 2.581-2.323 5.162-3.483 7.744-.043.097-.063.204-.114.374.333 0 .603.037.855-.013.162-.032.368-.159.433-.297.4-.854.758-1.728 1.15-2.587.2-.44.372-.88.863-1.157 2.155-1.217 4.417-1.258 6.735-.611.8.223.783.278.332.983-.042.065-.09.127-.13.193-.533.846-1.069 1.69-1.594 2.539-.253.408.002.945.45.946 2.26.006 4.52.004 6.78-.004.118 0 .295-.05.342-.13.156-.276.265-.575.427-.945h-6.577zM6.045 17.975h-.003c0 2.05.007 4.101-.007 6.151-.003.37.115.49.501.486 1.688-.018 3.377-.027 5.065.002.503.008.813-.085.975-.598.148-.465.163-.504-.349-.504-1.515 0-3.03-.01-4.546.009-.374.004-.502-.088-.5-.472.013-3.727.004-7.453.01-11.18 0-.295-.021-.493-.417-.481-.725.02-.728.003-.728.475v6.112z" fill="#F17025" fill-rule="evenodd"/></svg>