<svg width="33" height="32" xmlns="http://www.w3.org/2000/svg"><path d="M22.469 4.47c.566 0 1.085-.518 1.07-1.068-.015-.559-.548-1.066-1.1-1.047-.542.018-1.01.499-1.017 1.045-.008.6.453 1.07 1.047 1.07m-2.582 4.198c.07-1.225.07-1.213-.94-1.282-.838-.057-1.679-.109-2.507-.233-.58-.086-.805.036-.856.67-.312 3.927-.668 7.85-1.006 11.773-.208 2.42-.39 4.843-.63 7.26-.05.506.062.619.552.645 1.14.062 2.277.203 3.415.306 2.789.25 5.577.5 8.366.742.206.018.462.123.489-.282a79.69 79.69 0 0 1 .27-3c.039-.368-.092-.451-.457-.48-2.111-.168-4.218-.385-6.328-.565-1.787-.152-1.748-.136-1.583-1.907.432-4.623.826-9.25 1.215-13.647m8.094 23.274c-2.196-.199-4.767-.44-7.34-.66-1.895-.163-3.793-.289-5.688-.449-1.16-.098-2.316-.229-3.473-.346-1.277-.13-2.07-1.356-1.965-2.454.484-5.045.916-10.096 1.366-15.144.105-1.183.22-2.365.3-3.55.024-.334.144-.548.399-.76C14.7 5.973 17.804 3.35 20.923.743c1.313-1.098 2.453-.976 3.563.345 2.565 3.051 5.118 6.113 7.709 9.143.392.46.376.898.329 1.418-.285 3.131-.553 6.264-.826 9.397-.188 2.155-.344 4.313-.578 6.463-.076.691-.113 1.38-.148 2.07-.086 1.673-.963 2.468-2.991 2.363zM18.45 1.467l-5.674 4.775c-.5.42-.958.91-1.51 1.247-.907.553-1.114 1.353-1.194 2.34-.451 5.634-.953 11.264-1.44 16.895-.023.255-.072.507-.108.755-.17.076-.27-.045-.382-.11-2.306-1.327-4.613-2.652-6.912-3.99-1.193-.695-1.573-1.875-.9-3.05C3.46 14.86 6.622 9.405 9.766 3.94c.126-.22.278-.356.519-.42 2.7-.719 5.4-1.441 8.1-2.163l.065.11z" fill="#EC8222" fill-rule="evenodd"/></svg>