<svg width="32" height="32" xmlns="http://www.w3.org/2000/svg"><path d="M15.983 32A16 16 0 1 1 32 16.035C31.98 24.865 24.813 32.01 15.983 32zm2.222-14.766c-.155.182-.285.328-.405.48-1.062 1.371-1.062 1.371.16 2.631a5.001 5.001 0 0 0 4.047 1.662 5.696 5.696 0 0 0 5.385-5.968v-.224c-.16-2.304-1.48-3.884-3.534-4.863-1.964-.915-3.802-.548-5.441.768a15.193 15.193 0 0 0-2.494 2.805c-1.088 1.428-2.158 2.89-3.353 4.215-1.195 1.325-2.895 1.467-4.315.233a3.452 3.452 0 0 1-1.217-3.214 3.534 3.534 0 0 1 2.2-2.814c1.2-.548 2.158-.116 3.047.66.432.393.841.863 1.269 1.269.12.117.237.453.431.22a5.98 5.98 0 0 0 1.148-1.58c.177-.43-.432-.728-.712-1.048-1.243-1.402-2.766-2.226-4.686-1.924-3.323.522-5.36 3.193-4.936 6.537a5.432 5.432 0 0 0 3.56 4.544c1.976.81 3.797.431 5.423-.902a16.099 16.099 0 0 0 2.322-2.632c1.208-1.55 2.248-3.24 3.775-4.518 1.528-1.277 3.534-1.005 4.67.733a3.59 3.59 0 0 1-.864 4.82c-1.502 1.152-3.02.95-4.44-.617-.337-.384-.664-.815-1.044-1.273h.004z" fill="#E1203A"/></svg>