<svg xmlns="http://www.w3.org/2000/svg" viewBox="-262 349 83 95"><path d="M-208.4 443.3c-9.6-1.8-19.2-3.5-28.7-5.3-7.4-1.4-14.8-3-22.3-4.2-2.3-.4-2.8-1.2-2.5-3.2 1.4-10.9 2.9-21.7 4.3-32.6.8-6.5 1.8-12.9 2.5-19.4.2-2.3.8-3.8 3.4-4.2 6-.8 9.7-3.7 10.9-9.9.7-3.7 3.1-6.9 5.6-9.7 2.9-3.2 6.2-5.5 10.7-5.7.6-.1 1.3-.1 1.9.1 4.9 3.1 11.9 3.5 13.6 10.4.4 1.3 1 1.6 2.3 1 .6-.5 1.4-.5 2.2-.2-.4 7.1-1 14.1-1.1 21.2-.2 7.1-.7 14.1-1.1 21.2-.8 13.4-1.2 27-1.7 40.5zm-38.7-27.9c-.7 2.3-1.2 4.3-1.9 6.3-.6 1.6 0 2.5 1.1 3.4 2.6 2.2 5.9 3.5 9.2 4.1 6.8 1.1 12.3-1.6 15.1-7.1 3.1-6.2 1.9-13-3-17.6-1.9-1.8-4.2-3.4-6.2-5-1.4-1.1-2.4-2.5-1.8-4.4.6-1.8 2.3-2.9 4.2-2.9 1-.1 1.9.1 2.9-.1 2-.4 4.3 2.3 5.9.6 1.3-1.4 1.6-4 2.3-6 .2-.6.4-1.3.6-1.9.7-1.6.4-2.4-1.4-2.8-5.1-1.2-10.7-.7-15.4 1.6-8.7 4.1-13.8 18.8-3.1 26 1.6 1 2.9 2.3 3.7 3.8 1 1.4 1 3.2 0 4.5-1 1.4-2.5 1.7-4.3 1.3-3-.6-5.1-2.4-7.9-3.8zm7.8-44.8c2-.6 3.7-1.2 5.4-1.7.8-.2 1.7-.5 1.8-1.6 1.3-5.9 3.8-11.1 9.3-14.8-6.7-1.3-13.8 7.1-16.5 18.1zm11-3.3c1.7-.5 2.9-.8 4-1.2 5.6-1.8 5.9-2.4 4.5-8.1-.5-2.2-1.3-1.9-2.6-.8-3.1 2.4-4.8 5.8-5.9 10.1zm11.9-11.8l.8 7.8c1-.2 2-.5 3-.8.6-.2 1.3-.4 1-1.3-1.1-2.3-2-4.6-4.8-5.7z" fill="#96c048"/><path d="M-208.4 443.3c.6-13.5 1.1-27.2 1.8-40.7.4-7.1 1-14.1 1.1-21.2.2-7.1.7-14.1 1.1-21.1 1.2-.2 1.8.7 2.3 1.4 2.5 3.2 5.6 5.1 9.8 4.8 2.3-.2 3 1 3.2 3.1 3 21.2 6.1 42.4 9.3 63.6.6 4.1.7 4.1-3.2 4.9-8.5 1.7-17 3.4-25.4 5.2z" fill="#608f3f"/></svg>