<svg data-name="Layer 1" xmlns="http://www.w3.org/2000/svg" viewBox="0 0 68 68"><path d="M60 9.9c-6.08-2.15-12.19.52-14.54 6.34-.12.31-.25.62-.45 1.11C43 12.19 39.56 9.29 34.2 9.23h-.4c-5.36.06-8.84 3-10.77 8.12-.2-.49-.33-.8-.45-1.11C20.23 10.42 14.12 7.75 8 9.9a10.57 10.57 0 0 0-6.4 13.53c3.12 9.19 6.4 18.32 9.85 27.4a11.65 11.65 0 0 0 9.48 7.89l1.52.11a15.76 15.76 0 0 0 3.71-.33 11.09 11.09 0 0 0 6.6-4.58c.42-.6.79-1.23 1.24-1.94.45.71.82 1.34 1.24 1.94a11.09 11.09 0 0 0 6.6 4.58 15.76 15.76 0 0 0 3.71.33l1.52-.11a11.65 11.65 0 0 0 9.48-7.89c3.42-9.08 6.73-18.21 9.85-27.4A10.57 10.57 0 0 0 60 9.9zm.56 11.44c-1 3.4-2.29 6.73-3.49 10.08q-2.91 8.16-5.86 16.29c-.85 2.35-2.1 4.39-4.79 4.93-3.26.66-5.77-.78-6.94-4-.66-1.8-1.21-3.65-1.8-5.48q-1.74-5.34-3.49-10.68c0-.14-.09-.2-.15-.17s-.11 0-.15.17q-1.79 5.38-3.53 10.72c-.59 1.83-1.14 3.68-1.8 5.48-1.17 3.18-3.68 4.62-6.94 4-2.69-.54-3.94-2.58-4.79-4.93q-3-8.13-5.86-16.29c-1.2-3.35-2.46-6.68-3.49-10.08a4.51 4.51 0 0 1 4.35-6c2.66-.14 4.38 1.12 5.2 3.83 1.77 5.79 3.53 11.54 5.33 17.32.14.47.42 2.16.69 1.41l.4-1.25c1.84-5.77 3.65-11.55 5.5-17.32.92-2.86 2.44-4 5.05-4s4.13 1.17 5 4c1.85 5.77 3.66 11.55 5.5 17.32l.4 1.25c.27.75.55-.94.69-1.41C47.44 30.75 49.2 25 51 19.16c.82-2.71 2.54-4 5.2-3.83a4.51 4.51 0 0 1 4.32 6.01z" fill="#2b91e9"/></svg>