<svg width="43" height="26" xmlns="http://www.w3.org/2000/svg"><path d="M39.25 0c.227.053.45.114.678.163 1.73.392 2.987 1.916 3.067 3.718v13.646a4.062 4.062 0 0 1-1.846 3.626 3.79 3.79 0 0 1-2.143.632H26.382L28.06 26l-1.678-.945c-1.81-1.026-3.625-2.06-5.436-3.071a1.566 1.566 0 0 0-.73-.192H4.05C2.08 21.833.376 20.4.045 18.422a4.075 4.075 0 0 1-.042-.753c0-4.523.017-9.047 0-13.571C.007 2.182 1.326.53 3.168.135c.192-.04.383-.089.575-.131h35.508V0zM11.12 11.665l.084.252a21.21 21.21 0 0 0 2.254 5.252 8.37 8.37 0 0 0 1.947 2.354c.938.71 1.957.291 2.201-.866a2.33 2.33 0 0 0 .028-.466c0-.898-.056-1.803.021-2.698.136-1.584.318-3.164.555-4.734.321-2.13.698-4.222 1.668-6.171a1.498 1.498 0 0 0-.366-1.829 1.518 1.518 0 0 0-1.356-.407 1.54 1.54 0 0 0-1.108.894c-1.047 2.066-1.51 4.318-1.877 6.59-.154.948-.265 1.9-.394 2.84l-.116.026c-.4-1.51-.81-3.019-1.2-4.531-.164-.636-.24-1.296-.454-1.914a1.274 1.274 0 0 0-.885-.895 1.248 1.248 0 0 0-1.208.316c-.24.212-.437.47-.583.756a891.144 891.144 0 0 0-2.927 5.707l-.838 1.615a1.262 1.262 0 0 1-.087-.206c-.549-2.959-1.096-5.918-1.64-8.877-.098-.533-.15-1.094-.698-1.385a1.66 1.66 0 0 0-1.78.089c-.514.339-.761.97-.617 1.577.405 2.414.806 4.832 1.263 7.236a39.278 39.278 0 0 0 1.553 6.094c.156.425.37.826.638 1.19a.802.802 0 0 0 1.158.23c.377-.222.706-.52.967-.873a29.429 29.429 0 0 0 1.585-2.678c.757-1.456 1.458-2.947 2.212-4.488zm13.137 6.228a4.39 4.39 0 0 0 3.734-1.988 9.61 9.61 0 0 0 1.835-5.156 8.41 8.41 0 0 0-.44-3.473 4.446 4.446 0 0 0-3.303-2.931 4.375 4.375 0 0 0-4.16 1.404c-2.29 2.677-2.938 5.767-1.843 9.144.632 1.953 2.22 2.997 4.177 3zm6.389-5.529c.003-2.556.666-4.584 2.073-6.363 1.737-2.18 4.937-2.34 6.748-.334a5.703 5.703 0 0 1 1.36 3.196 9.763 9.763 0 0 1-.837 5.422 7.593 7.593 0 0 1-1.8 2.554 4.397 4.397 0 0 1-4.077.902 4.49 4.49 0 0 1-3.024-2.926 7.076 7.076 0 0 1-.443-2.45zm-3.884-1.669a5.238 5.238 0 0 1-1.162 3.122c-.216.252-.47.47-.75.646-.663.419-1.252.263-1.65-.426a4.468 4.468 0 0 1-.534-2.702 5.686 5.686 0 0 1 1.239-3.083c.205-.261.453-.485.732-.66.243-.172.545-.23.833-.163.288.068.534.256.678.518.447.717.639 1.502.614 2.748zm11.065-.742a3.858 3.858 0 0 0-.58-1.917 1.113 1.113 0 0 0-.774-.607 1.096 1.096 0 0 0-.945.252 2.618 2.618 0 0 0-.517.486 5.884 5.884 0 0 0-1.284 3.097c-.131.992.073 2 .58 2.858a.988.988 0 0 0 1.461.405c.36-.203.68-.47.946-.788.813-.998 1.082-2.202 1.113-3.786z" fill="#9B5C8F" fill-rule="evenodd"/></svg>